<?xml version="1.0" encoding="UTF-8"?>
<svg viewBox="0 0 1000 600" xmlns="http://www.w3.org/2000/svg">
 <path d="m73.816 576.87c-6.8116-5.2625-6.6773-11.889 0.33841-16.673 7.2507-4.9454 16.377-4.8472 22.968 0.24536 6.8117 5.2643 6.6772 11.889-0.33842 16.673-7.2507 4.9452-16.377 4.8471-22.968-0.24542zm49.717-21.476c-18.194-7.1664-17.899-28.012 0.49432-34.915 13.864-5.2047 30.7-1.7004 37.468 7.801 12.881 18.082-13.342 36.812-37.962 27.114zm70.603-32.75c-23.834-9.2507-33.334-30.329-21.134-46.897 12.741-17.302 41.778-24.199 64.601-15.342 23.834 9.249 33.334 30.329 21.134 46.897-12.741 17.302-41.779 24.199-64.601 15.342zm360.08-32.075c-31.108-4.8998-50.972-10.883-74.758-22.519l-12.907-6.3145-22.108 7.9202c-12.161 4.3563-29.714 9.0737-39.011 10.481-86.989 13.178-172.17-25.138-194.39-87.436-3.0233-8.4794-5.4864-12.294-7.6638-11.87-1.7648 0.34192-11.902 1.0308-22.527 1.5304-35.184 1.6531-63.854-6.5668-88.609-25.408-14.742-11.219-21.146-19.178-27.036-33.6-7.9244-19.402-3.0596-46.681 11.389-63.859 9.1468-10.876 29.698-24.781 44.698-30.245l13.898-5.061 3.0171-11.395c11.416-43.116 65.231-75.381 125.73-75.381h14.026l1.5343-10.657c6.0122-41.756 49.463-79.947 107.82-94.768 13.334-3.3868 20.598-3.9864 48.296-3.9864 27.695 0 34.959 0.59954 48.296 3.9864 44.09 11.197 79.186 34.728 96.901 64.965 3.7961 6.4792 8.1185 11.378 9.8645 11.176 1.7097-0.1972 9.6278-2.0764 17.597-4.1758 19.726-5.1972 54.732-6.4247 76.629-2.6871 42.307 7.2205 79.986 28.734 97.768 55.823 5.5685 8.4828 7.5341 10.052 11.543 9.2086 10.78-2.2702 44.367-2.8574 57.955-1.0133 23.3 3.1607 47.721 12.622 66.441 25.743 53.91 37.781 55.231 96.751 3.0476 135.99-27.647 20.791-62.372 30.643-102.41 29.06l-20.852-0.8257-2.8977 13.044c-16.145 72.659-101.72 125.29-202.92 124.81-12.617-0.059601-29.883-1.2025-38.364-2.5384z" fill="#fff" stroke="#000" stroke-width="6"/>
</svg>
